<svg xmlns="http://www.w3.org/2000/svg" xmlns:svg="http://www.w3.org/2000/svg" id="svg2" width="1200" height="520" version="1.1" viewBox="0 0 1200 520"><metadata id="metadata62"/><defs id="defs60"><clipPath id="clipPath5367" clipPathUnits="userSpaceOnUse"><g id="g5369" fill="#fff" fill-opacity="0" stroke="#323232" stroke-dasharray="none" stroke-linecap="round" stroke-linejoin="round" stroke-miterlimit="4" stroke-opacity="1" stroke-width="10" font-family="Roboto" font-size="768.5" font-stretch="normal" font-style="normal" font-variant="normal" font-weight="500" letter-spacing="0" opacity=".98" text-anchor="start" transform="translate(-220.74575,-672.27115)" word-spacing="0" writing-mode="lr-tb" style="line-height:125%;-inkscape-font-specification:'Roboto, Medium';text-align:start"><path id="path5371" d="m -2458.9519,1276.724 v 203.0071 h -94.9368 V 933.37561 h 209.011 q 91.5596,0 145.2195,47.65601 54.0352,47.65598 54.0352,126.08198 0,80.3023 -52.9095,124.9563 -52.5342,44.6541 -147.4709,44.6541 z m 0,-76.1746 h 114.0742 q 50.658,0 77.3003,-23.6403 26.6423,-24.0157 26.6423,-69.045 0,-44.2788 -27.0175,-70.5459 -27.0176,-26.6423 -74.2984,-27.3928 h -116.7009 z"/></g></clipPath><filter id="filter5263-1" width="1.115" height="1.576" x="-.058" y="-.288" color-interpolation-filters="sRGB"><feGaussianBlur id="feGaussianBlur5265-4" stdDeviation="11.138"/></filter><filter id="filter5557-8" width="1.576" height="1.115" x="-.288" y="-.058" color-interpolation-filters="sRGB"><feGaussianBlur id="feGaussianBlur5559-6" stdDeviation="11.138"/></filter><filter id="filter5275-9" width="1.115" height="1.576" x="-.058" y="-.288" color-interpolation-filters="sRGB"><feGaussianBlur id="feGaussianBlur5277-2" stdDeviation="11.138"/></filter><clipPath id="clipPath4734" clipPathUnits="userSpaceOnUse"><path id="path4736" d="M 0,595.28 H 841.89 V 0 H 0 Z"/></clipPath><filter id="filter4930" color-interpolation-filters="sRGB"><feColorMatrix id="feColorMatrix4932" result="fbSourceGraphic" values="0.52 0.35 0.31 0.104167 0 0.52 0.35 0.31 0.104167 0 0.52 0.35 0.31 0.104167 0 0 0 0 1 0"/><feColorMatrix id="feColorMatrix4934" in="fbSourceGraphic" result="fbSourceGraphicAlpha" values="0 0 0 -1 0 0 0 0 -1 0 0 0 0 -1 0 0 0 0 1 0"/><feColorMatrix id="feColorMatrix4936" in="fbSourceGraphic" values="0.52 0.35 0.31 0.1 0 0.52 0.35 0.31 0.1 0 0.52 0.35 0.31 0.1 0 0 0 0 1 0"/></filter></defs><g id="g1299" transform="translate(-276.90009,310.51584)"><rect id="rect4628" width="1200" height="520" x="276.9" y="-310.516" fill="#5d5d5d" fill-opacity=".98" fill-rule="nonzero" stroke="none" stroke-dasharray="none" stroke-dashoffset="0" stroke-linecap="round" stroke-linejoin="round" stroke-miterlimit="4" stroke-opacity="1" stroke-width="90.717" opacity="1"/><g id="g1241" transform="matrix(4.6108413,0,0,4.6108413,-984.62338,-727.60241)"><g id="g4636" transform="matrix(0.13658138,0,0,0.13744612,459.70099,57.463435)"><path id="path4638" fill="#000" fill-opacity=".275" stroke="none" stroke-dasharray="none" stroke-dashoffset="0" stroke-linecap="butt" stroke-linejoin="miter" stroke-miterlimit="4" stroke-opacity="1" stroke-width="4.4" d="m -1169.3056,464.21484 h 371.2542 c 25.70935,0 46.40678,20.69743 46.40678,46.40678 0,25.70935 -20.69743,46.40678 -46.40678,46.40678 h -371.2542 c -25.7094,0 -46.4068,-20.69743 -46.4068,-46.40678 0,-25.70935 20.6974,-46.40678 46.4068,-46.40678 z" filter="url(#filter5263-1)" opacity="1"/><path id="path4640" fill="#fa5422" fill-opacity="1" stroke="none" stroke-dasharray="none" stroke-dashoffset="0" stroke-linecap="butt" stroke-linejoin="miter" stroke-miterlimit="4" stroke-opacity="1" stroke-width="4.4" d="m -1169.3056,454.21484 h 371.2542 c 25.70935,0 46.40678,20.69743 46.40678,46.40678 0,25.70935 -20.69743,46.40678 -46.40678,46.40678 h -371.2542 c -25.7094,0 -46.4068,-20.69743 -46.4068,-46.40678 0,-25.70935 20.6974,-46.40678 46.4068,-46.40678 z" opacity="1"/><path id="path4642" fill="#000" fill-opacity=".275" stroke="none" stroke-dasharray="none" stroke-dashoffset="0" stroke-linecap="butt" stroke-linejoin="miter" stroke-miterlimit="4" stroke-opacity="1" stroke-width="4.4" d="m -1114.8988,500.62162 v 371.25423 c 0,25.70935 -20.6974,46.40677 -46.4068,46.40677 -25.7093,0 -46.4068,-20.69742 -46.4068,-46.40677 V 500.62162 c 0,-25.70935 20.6975,-46.40678 46.4068,-46.40678 25.7094,0 46.4068,20.69743 46.4068,46.40678 z" filter="url(#filter5557-8)" opacity="1"/><path id="path4644" fill="#1892cc" fill-opacity="1" stroke="none" stroke-dasharray="none" stroke-dashoffset="0" stroke-linecap="butt" stroke-linejoin="miter" stroke-miterlimit="4" stroke-opacity="1" stroke-width="4.4" d="m 500.62162,1122.8988 h 371.25423 c 25.70935,0 46.40677,20.6974 46.40677,46.4068 0,25.7093 -20.69742,46.4068 -46.40677,46.4068 H 500.62162 c -25.70935,0 -46.40678,-20.6975 -46.40678,-46.4068 0,-25.7094 20.69743,-46.4068 46.40678,-46.4068 z" opacity="1" transform="rotate(90)"/><path id="path4646" fill="#000" fill-opacity=".275" stroke="none" stroke-dasharray="none" stroke-dashoffset="0" stroke-linecap="butt" stroke-linejoin="miter" stroke-miterlimit="4" stroke-opacity="1" stroke-width="4.4" d="m -1169.3056,835.46906 h 371.2542 c 25.70935,0 46.40678,20.69742 46.40678,46.40677 0,25.70936 -20.69743,46.40678 -46.40678,46.40678 h -371.2542 c -25.7094,0 -46.4068,-20.69742 -46.4068,-46.40678 0,-25.70935 20.6974,-46.40677 46.4068,-46.40677 z" filter="url(#filter5275-9)" opacity="1"/><path id="path4648" fill="#d0e841" fill-opacity="1" stroke="none" stroke-dasharray="none" stroke-dashoffset="0" stroke-linecap="butt" stroke-linejoin="miter" stroke-miterlimit="4" stroke-opacity="1" stroke-width="4.4" d="m -1169.3056,825.46906 h 371.2542 c 25.70935,0 46.40678,20.69742 46.40678,46.40677 0,25.70936 -20.69743,46.40678 -46.40678,46.40678 h -371.2542 c -25.7094,0 -46.4068,-20.69742 -46.4068,-46.40678 0,-25.70935 20.6974,-46.40677 46.4068,-46.40677 z" opacity="1"/></g><g id="g1209"><text id="text4650" x="315.454" y="151.087" fill="#d8d8d8" fill-opacity="1" stroke="none" stroke-dasharray="none" stroke-linecap="butt" stroke-linejoin="miter" stroke-miterlimit="4" stroke-opacity="1" stroke-width=".425" font-family="Century Gothic" font-size="2.551" font-stretch="normal" font-style="normal" font-variant="normal" font-weight="normal" letter-spacing="0" text-anchor="start" word-spacing="0" writing-mode="lr-tb" xml:space="preserve" style="line-height:0%;-inkscape-font-specification:'Century Gothic, Normal';text-align:start"><tspan style="line-height:1.25" id="tspan4658" x="315.454" y="151.087" stroke-width=".425" font-size="16.69"><tspan id="tspan4676" fill="#fff" fill-opacity="1" stroke-dasharray="none" stroke-miterlimit="4" stroke-width=".425">O</tspan><tspan id="tspan4712" fill="#fff" fill-opacity="1" stroke-width=".425">pen</tspan><tspan id="tspan4718" fill="#c4c4c4" fill-opacity="1" stroke-width=".425">Launcher</tspan></tspan></text><text id="text4662" x="316.416" y="164.771" fill="#d8d8d8" fill-opacity="1" stroke="none" stroke-linecap="butt" stroke-linejoin="miter" stroke-opacity="1" stroke-width=".213" font-family="Century Gothic" font-size="2.551" font-stretch="normal" font-style="normal" font-variant="normal" font-weight="normal" letter-spacing="0" text-anchor="start" word-spacing="0" writing-mode="lr-tb" xml:space="preserve" style="line-height:0%;-inkscape-font-specification:'Century Gothic, Normal';text-align:start"><tspan id="tspan4664" x="316.416" y="164.771" stroke-width=".213" font-size="8.503" style="line-height:1.25">The ideal open source home screen for <tspan id="tspan4710" fill="#92cc74" fill-opacity="1" stroke-width=".213">Android</tspan></tspan></text></g></g></g></svg>